<svg class="icon-play center" id="play-icon" xmlns="http://www.w3.org/2000/svg" xmlns:xlink="http://www.w3.org/1999/xlink" viewBox="0 0 150 150" shape-rendering="geometricPrecision" text-rendering="geometricPrecision">
    <style>
        #play-icon-wrapper.hover {
        animation: play-icon-wrapper_c_o 3000ms linear 1 normal forwards
        }

        @media screen and (max-width: 1023px) {
        #play-icon-wrapper {
            animation: play-icon-wrapper_c_o 3000ms linear 1 normal forwards
        }
        }

        @keyframes play-icon-wrapper_c_o {
        0% {
            opacity: 0
        }
        16.666667% {
            opacity: 0
        }
        18.333333% {
            opacity: 1
        }
        100% {
            opacity: 1
        }
        }

        #play-icon-el.hover {
        animation: play-icon-el_c_o 3000ms linear 1 normal forwards
        }

        @media screen and (max-width: 1023px) {
        #play-icon-el {
            animation: play-icon-el_c_o 3000ms linear 1 normal forwards
        }
        }

        @keyframes play-icon-el_c_o {
        0% {
            opacity: 0
        }
        15% {
            opacity: 0
        }
        16.666667% {
            opacity: 1
        }
        18.333333% {
            opacity: 0
        }
        100% {
            opacity: 0
        }
        }

        #play-icon-el-2.hover {
        animation: play-icon-el-2_c_o 3000ms linear 1 normal forwards
        }

        @media screen and (max-width: 1023px) {
        #play-icon-el-2 {
            animation: play-icon-el-2_c_o 3000ms linear 1 normal forwards
        }
        }

        @keyframes play-icon-el-2_c_o {
        0% {
            opacity: 0
        }
        13.333333% {
            opacity: 0
        }
        15% {
            opacity: 1
        }
        16.666667% {
            opacity: 0
        }
        100% {
            opacity: 0
        }
        }

        #play-icon-el-3.hover {
        animation: play-icon-el-3_c_o 3000ms linear 1 normal forwards
        }

        @media screen and (max-width: 1023px) {
        #play-icon-el-3 {
            animation: play-icon-el-3_c_o 3000ms linear 1 normal forwards
        }
        }

        @keyframes play-icon-el-3_c_o {
        0% {
            opacity: 0
        }
        11.666667% {
            opacity: 0
        }
        13.333333% {
            opacity: 1
        }
        15% {
            opacity: 0
        }
        100% {
            opacity: 0
        }
        }

        #play-icon-el-4.hover {
        animation: play-icon-el-4_c_o 3000ms linear 1 normal forwards
        }

        @media screen and (max-width: 1023px) {
        #play-icon-el-4 {
            animation: play-icon-el-4_c_o 3000ms linear 1 normal forwards
        }
        }

        @keyframes play-icon-el-4_c_o {
        0% {
            opacity: 0
        }
        10% {
            opacity: 0
        }
        11.666667% {
            opacity: 1
        }
        13.333333% {
            opacity: 0
        }
        100% {
            opacity: 0
        }
        }

        #play-icon-el-5.hover {
        animation: play-icon-el-5_c_o 3000ms linear 1 normal forwards
        }

        @media screen and (max-width: 1023px) {
        #play-icon-el-5 {
            animation: play-icon-el-5_c_o 3000ms linear 1 normal forwards
        }
        }

        @keyframes play-icon-el-5_c_o {
        0% {
            opacity: 0
        }
        8.333333% {
            opacity: 0
        }
        10% {
            opacity: 1
        }
        11.666667% {
            opacity: 0
        }
        100% {
            opacity: 0
        }
        }

        #play-icon-el-6.hover {
        animation: play-icon-el-6_c_o 3000ms linear 1 normal forwards
        }

        @media screen and (max-width: 1023px) {
        #play-icon-el-6 {
            animation: play-icon-el-6_c_o 3000ms linear 1 normal forwards
        }
        }

        @keyframes play-icon-el-6_c_o {
        0% {
            opacity: 0
        }
        6.666667% {
            opacity: 0
        }
        8.333333% {
            opacity: 1
        }
        10% {
            opacity: 0
        }
        100% {
            opacity: 0
        }
        }

        #play-icon-el-7.hover {
        animation: play-icon-el-7_c_o 3000ms linear 1 normal forwards
        }

        @media screen and (max-width: 1023px) {
        #play-icon-el-7 {
            animation: play-icon-el-7_c_o 3000ms linear 1 normal forwards
        }
        }

        @keyframes play-icon-el-7_c_o {
        0% {
            opacity: 0
        }
        5% {
            opacity: 0
        }
        6.666667% {
            opacity: 1
        }
        8.333333% {
            opacity: 0
        }
        100% {
            opacity: 0
        }
        }

        #play-icon-el-8.hover {
        animation: play-icon-el-8_c_o 3000ms linear 1 normal forwards
        }

        @media screen and (max-width: 1023px) {
        #play-icon-el-8 {
            animation: play-icon-el-8_c_o 3000ms linear 1 normal forwards
        }
        }

        @keyframes play-icon-el-8_c_o {
        0% {
            opacity: 0
        }
        3.333333% {
            opacity: 0
        }
        5% {
            opacity: 1
        }
        6.666667% {
            opacity: 0
        }
        100% {
            opacity: 0
        }
        }

        #play-icon-el-9.hover {
        animation: play-icon-el-9_c_o 3000ms linear 1 normal forwards
        }

        @media screen and (max-width: 1023px) {
        #play-icon-el-9 {
            animation: play-icon-el-9_c_o 3000ms linear 1 normal forwards
        }
        }

        @keyframes play-icon-el-9_c_o {
        0% {
            opacity: 0
        }
        1.666667% {
            opacity: 0
        }
        3.333333% {
            opacity: 1
        }
        5% {
            opacity: 0
        }
        100% {
            opacity: 0
        }
        }

        #play-icon-el-10.hover {
        animation: play-icon-el-10_c_o 3000ms linear 1 normal forwards
        }

        @media screen and (max-width: 1023px) {
        #play-icon-el-10 {
            animation: play-icon-el-10_c_o 3000ms linear 1 normal forwards
        }
        }

        @keyframes play-icon-el-10_c_o {
        0% {
            opacity: 0
        }
        1.666667% {
            opacity: 1
        }
        3.333333% {
            opacity: 0
        }
        100% {
            opacity: 0
        }
        }

        #play-icon-el-11.hover {
        animation: play-icon-el-11_c_o 3000ms linear 1 normal forwards
        }

        @media screen and (max-width: 1023px) {
        #play-icon-el-11 {
            animation: play-icon-el-11_c_o 3000ms linear 1 normal forwards
        }
        }

        @keyframes play-icon-el-11_c_o {
        0% {
            opacity: 1
        }
        1.666667% {
            opacity: 0
        }
        100% {
            opacity: 0
        }
        }
    </style>
    <path id="play-icon-wrapper" d="M876.310000,542.260000L781.810000,596.820000C780.417249,597.624106,778.701244,597.623831,777.308750,596.819279C775.916256,596.014727,775.058969,594.528211,775.060000,592.920000L775.060000,483.800000C775.062539,482.193576,775.921236,480.710331,777.313077,479.908219C778.704918,479.106106,780.418795,479.106785,781.810000,479.910000L876.310000,534.470000C877.700243,535.274399,878.556342,536.758814,878.556342,538.365000C878.556342,539.971186,877.700243,541.455601,876.310000,542.260000Z" transform="matrix(1 0 0 1 -736.05999999999995 -463.36000000000001)" opacity="0" fill="none" stroke="rgb(0,109,236)" stroke-width="3"/>
    <path id="play-icon-el" d="M880.750000,541.540000L814.240000,608.060000C813.395842,608.905762,812.249955,609.381042,811.055000,609.381042C809.860045,609.381042,808.714158,608.905762,807.870000,608.060000L741.360000,541.540000C740.514843,540.697551,740.039811,539.553319,740.039811,538.360000C740.039811,537.166681,740.514843,536.022449,741.360000,535.180000L807.870000,468.670000C808.714158,467.824238,809.860045,467.348958,811.055000,467.348958C812.249955,467.348958,813.395842,467.824238,814.240000,468.670000L880.750000,535.180000C881.595157,536.022449,882.070189,537.166681,882.070189,538.360000C882.070189,539.553319,881.595157,540.697551,880.750000,541.540000Z" transform="matrix(1 0 0 1 -736.05999999999995 -463.36000000000001)" opacity="0" fill="none" stroke="rgb(0,109,236)" stroke-width="3"/>
    <path id="play-icon-el-2" d="M882.280000,541L835.580000,605.270000C834.439928,606.835704,832.425928,607.496296,830.580000,606.910000L755,582.370000C753.145584,581.767740,751.889975,580.039763,751.890000,578.090000L751.890000,498.640000C751.886816,496.689212,753.143633,494.959572,755,494.360000L830.560000,469.810000C832.403789,469.215034,834.421116,469.872683,835.560000,471.440000L882.260000,535.720000C883.410142,537.289708,883.418217,539.421624,882.280000,541Z" transform="matrix(1 0 0 1 -736.05999999999995 -463.36000000000001)" opacity="0" fill="none" stroke="rgb(0,109,236)" stroke-width="3"/>
    <path id="play-icon-el-3" d="M883,540.610000L849,599.560000C848.197154,600.954714,846.709279,601.813103,845.100000,601.810000L777,601.810000C775.390721,601.813103,773.902846,600.954714,773.100000,599.560000L739.100000,540.610000C738.289913,539.219374,738.289913,537.500626,739.100000,536.110000L773.100000,477.160000C773.905870,475.768310,775.391826,474.911028,777,474.910000L845.070000,474.910000C846.678174,474.911028,848.164130,475.768310,848.970000,477.160000L882.970000,536.110000C883.789379,537.495220,883.800837,539.213978,883,540.610000Z" transform="matrix(1 0 0 1 -736.05999999999995 -463.36000000000001)" opacity="0" fill="none" stroke="rgb(0,109,236)" stroke-width="3"/>
    <path id="play-icon-el-4" d="M883.450000,540.310000L857.720000,593.750000C857.126511,594.982265,856.003713,595.876822,854.670000,596.180000L796.850000,609.380000C795.513783,609.680904,794.113166,609.361078,793.040000,608.510000L746.680000,571.510000C745.616924,570.655124,744.999028,569.364163,745,568L745,508.700000C745.003770,507.329629,745.629035,506.034964,746.700000,505.180000L793.060000,468.180000C794.129243,467.320781,795.533784,467.000059,796.870000,467.310000L854.690000,480.500000C856.023100,480.810748,857.144200,481.707628,857.740000,482.940000L883.470000,536.370000C884.066216,537.617284,884.058848,539.068833,883.450000,540.310000Z" transform="matrix(1 0 0 1 -736.05999999999995 -463.36000000000001)" opacity="0" fill="none" stroke="rgb(0,109,236)" stroke-width="3"/>
    <path id="play-icon-el-5" d="M883.720000,540.080000L863.650000,588.530000C863.194292,589.630193,862.320193,590.504292,861.220000,590.960000L812.780000,611C811.673961,611.449691,810.436039,611.449691,809.330000,611L760.890000,591C759.789807,590.544292,758.915708,589.670193,758.460000,588.570000L738.390000,540.120000C737.939833,539.017516,737.939833,537.782484,738.390000,536.680000L758.460000,488.240000C758.914452,487.136652,759.788528,486.258980,760.890000,485.800000L809.330000,465.740000C810.433889,465.279444,811.676111,465.279444,812.780000,465.740000L861.220000,485.800000C862.321472,486.258980,863.195548,487.136652,863.650000,488.240000L883.720000,536.680000C884.168934,537.768876,884.168934,538.991124,883.720000,540.080000Z" transform="matrix(1 0 0 1 -736.05999999999995 -463.36000000000001)" opacity="0" fill="none" stroke="rgb(0,109,236)" stroke-width="3"/>
    <path id="play-icon-el-6" d="M883.900000,539.900000L867.900000,584.010000C867.528906,585.003259,866.821149,585.834873,865.900000,586.360000L825.250000,609.830000C824.342691,610.351933,823.282360,610.542793,822.250000,610.370000L776,602.220000C774.957056,602.035350,774.012078,601.490306,773.330000,600.680000L743.160000,564.680000C742.498768,563.863357,742.144896,562.840669,742.160000,561.790000L742.160000,514.890000C742.146587,513.839604,742.500266,512.817474,743.160000,512L773.330000,476.050000C774.009270,475.236347,774.955566,474.690544,776,474.510000L822.220000,466.360000C823.251211,466.179073,824.313204,466.366692,825.220000,466.890000L865.870000,490.360000C866.791835,490.888940,867.499423,491.723893,867.870000,492.720000L883.870000,536.820000C884.239445,537.811648,884.250059,538.901344,883.900000,539.900000Z" transform="matrix(1 0 0 1 -736.05999999999995 -463.36000000000001)" opacity="0" fill="none" stroke="rgb(0,109,236)" stroke-width="3"/>
    <path id="play-icon-el-7" d="M884,539.750000L870.880000,580.130000C870.581270,581.032633,870.007866,581.819315,869.240000,582.380000L834.900000,607.380000C834.129568,607.939160,833.201959,608.240195,832.250000,608.240000L789.830000,608.240000C788.878041,608.240195,787.950432,607.939160,787.180000,607.380000L752.840000,582.380000C752.072134,581.819315,751.498730,581.032633,751.200000,580.130000L738.080000,539.750000C737.789976,538.846026,737.789976,537.873974,738.080000,536.970000L751.200000,496.600000C751.493819,495.694851,752.068236,494.906779,752.840000,494.350000L787.180000,469.350000C787.950432,468.790840,788.878041,468.489805,789.830000,468.490000L832.280000,468.490000C833.231959,468.489805,834.159568,468.790840,834.930000,469.350000L869.270000,494.350000C870.041764,494.906779,870.616181,495.694851,870.910000,496.600000L884,537C884.283646,537.894724,884.283646,538.855276,884,539.750000Z" transform="matrix(1 0 0 1 -736.05999999999995 -463.36000000000001)" opacity="0" fill="none" stroke="rgb(0,109,236)" stroke-width="3"/>
    <path id="play-icon-el-8" d="M884.190000,539.530000L875,573.920000C874.795421,574.676860,874.395372,575.366600,873.840000,575.920000L848.660000,601.100000C848.108064,601.657269,847.417780,602.057634,846.660000,602.260000L812.270000,611.480000C811.506204,611.679959,810.703796,611.679959,809.940000,611.480000L775.550000,602.260000C774.792220,602.057634,774.101936,601.657269,773.550000,601.100000L748.300000,575.940000C747.744628,575.386600,747.344579,574.696860,747.140000,573.940000L737.920000,539.550000C737.720041,538.786204,737.720041,537.983796,737.920000,537.220000L747.140000,502.820000C747.341012,502.061659,747.741571,501.371040,748.300000,500.820000L773.480000,475.640000C774.033965,475.083212,774.723178,474.680023,775.480000,474.470000L809.870000,465.260000C810.632489,465.050129,811.437511,465.050129,812.200000,465.260000L846.590000,474.470000C847.346822,474.680023,848.036035,475.083212,848.590000,475.640000L873.770000,500.820000C874.328429,501.371040,874.728988,502.061659,874.930000,502.820000L884.150000,537.220000C884.359631,537.974059,884.373398,538.769135,884.190000,539.530000Z" transform="matrix(1 0 0 1 -736.05999999999995 -463.36000000000001)" opacity="0" fill="none" stroke="rgb(0,109,236)" stroke-width="3"/>
    <path id="play-icon-el-9" d="M884.290000,539.360000L877.470000,569.230000C877.318749,569.890713,877.021477,570.509175,876.600000,571.040000L857.500000,595.040000C857.078924,595.571027,856.541874,595.998615,855.930000,596.290000L828.330000,609.590000C827.705201,609.886069,827.021367,610.036512,826.330000,610.030000L795.740000,610.030000C795.048633,610.036512,794.364799,609.886069,793.740000,609.590000L766.140000,596.290000C765.528126,595.998615,764.991076,595.571027,764.570000,595.040000L745.470000,571.040000C745.048523,570.509175,744.751251,569.890713,744.600000,569.230000L737.780000,539.360000C737.629976,538.701774,737.629976,538.018226,737.780000,537.360000L744.600000,507.490000C744.749390,506.831663,745.046932,506.216059,745.470000,505.690000L764.570000,481.690000C764.994016,481.161916,765.530336,480.734910,766.140000,480.440000L793.740000,467.150000C794.362313,466.845690,795.047319,466.691564,795.740000,466.700000L826.370000,466.700000C827.062681,466.691564,827.747687,466.845690,828.370000,467.150000L855.970000,480.440000C856.579664,480.734910,857.115984,481.161916,857.540000,481.690000L876.640000,505.690000C877.063068,506.216059,877.360610,506.831663,877.510000,507.490000L884.330000,537.360000C884.466890,538.021224,884.453219,538.704778,884.290000,539.360000Z" transform="matrix(1 0 0 1 -736.05999999999995 -463.36000000000001)" opacity="0" fill="none" stroke="rgb(0,109,236)" stroke-width="3"/>
    <path id="play-icon-el-10" d="M884.320000,539.300000L878.320000,567.300000C878.190150,567.917237,877.931142,568.500005,877.560000,569.010000L860.730000,592.170000C860.359889,592.682592,859.886357,593.111837,859.340000,593.430000L834.540000,607.750000C833.992622,608.061398,833.386445,608.255511,832.760000,608.320000L804.280000,611.320000C803.652836,611.384066,803.019207,611.315933,802.420000,611.120000L775.180000,602.270000C774.580285,602.078105,774.028122,601.761122,773.560000,601.340000L752.280000,582.180000C751.812799,581.754287,751.438344,581.236859,751.180000,580.660000L739.530000,554.500000C739.276812,553.922899,739.144103,553.300185,739.140000,552.670000L739.140000,524C739.144103,523.369815,739.276812,522.747101,739.530000,522.170000L751.180000,496.010000C751.438527,495.436146,751.813053,494.922025,752.280000,494.500000L773.560000,475.340000C774.030157,474.919346,774.581484,474.599440,775.180000,474.400000L802.420000,465.550000C803.019860,465.357145,803.653536,465.292414,804.280000,465.360000L832.760000,468.360000C833.387123,468.427859,833.993285,468.625373,834.540000,468.940000L859.340000,483.260000C859.885901,483.574531,860.359497,484.000427,860.730000,484.510000L877.560000,507.680000C877.931142,508.189995,878.190150,508.772763,878.320000,509.390000L884.320000,537.390000C884.455745,538.019431,884.455745,538.670569,884.320000,539.300000Z" transform="matrix(1 0 0 1 -736.05999999999995 -463.36000000000001)" opacity="0" fill="none" stroke="rgb(0,109,236)" stroke-width="3"/>
    <path id="play-icon-el-11" d="M884.150000,530.680000L884.550000,538.360000L884.150000,546.040000L882.950000,553.640000L880.950000,561.070000L878.190000,568.260000L874.700000,575.110000L870.510000,581.560000L865.670000,587.560000L860.240000,593L854.240000,597.840000L847.800000,602L840.950000,605.500000L833.770000,608.250000L826.340000,610.250000L818.740000,611.460000L811.060000,611.860000L803.370000,611.460000L795.770000,610.250000L788.340000,608.250000L781.160000,605.500000L774.310000,602L767.850000,597.810000L761.850000,592.970000L756.410000,587.530000L751.560000,581.530000L747.370000,575.080000L743.880000,568.230000L741.120000,561.040000L739.120000,553.610000L738,546L737.600000,538.320000L738,530.640000L739.200000,523.040000L741.200000,515.610000L743.960000,508.430000L747.450000,501.570000L751.640000,495.120000L756.490000,489.120000L761.930000,483.680000L767.930000,478.840000L774.390000,474.650000L781.240000,471.160000L788.420000,468.400000L795.850000,466.400000L803.450000,465.200000L811.140000,464.790000L818.820000,465.200000L826.420000,466.400000L833.850000,468.400000L841.030000,471.160000L847.880000,474.650000L854.340000,478.840000L860.340000,483.680000L865.780000,489.120000L870.620000,495.120000L874.810000,501.570000L878.300000,508.430000L881.060000,515.610000L883.060000,523.040000Z" transform="matrix(1 0 0 1 -736.05999999999995 -463.36000000000001)" fill="none" stroke="rgb(0,109,236)" stroke-width="3"/>
</svg>
